<svg height="451pt" viewBox="0 0 451.468 451" width="451pt" xmlns="http://www.w3.org/2000/svg"><path d="m403.21875 40.632812h-270.777344c-10.039062 0-18.160156 8.140626-18.160156 18.179688v156.300781h69.902344c7 0 13.617187 3.179688 17.976562 8.660157l29.0625 36.460937c4.359375 5.480469 10.980469 8.660156 17.980469 8.660156h172.179687v-210.082031c-.003906-10.039062-8.144531-18.179688-18.164062-18.179688zm0 0" fill="#d7e057"/><path d="m403.21875 37.632812h-270.777344c-11.667968 0-21.160156 9.5-21.160156 21.179688v156.300781c0 1.65625 1.34375 3 3 3h69.902344c6.125 0 11.824218 2.742188 15.632812 7.527344l29.058594 36.460937c4.953125 6.222657 12.359375 9.792969 20.328125 9.792969h172.179687c1.65625 0 3-1.34375 3-3v-210.082031c-.003906-11.679688-9.496093-21.179688-21.164062-21.179688zm15.160156 228.261719h-169.179687c-6.125 0-11.824219-2.746093-15.632813-7.53125l-29.058594-36.457031c-4.953124-6.222656-12.359374-9.792969-20.328124-9.792969h-66.898438v-153.300781c0-8.367188 6.796875-15.179688 15.160156-15.179688h270.777344c8.359375 0 15.160156 6.8125 15.160156 15.179688zm0 0" fill="#3a312a"/><path d="m319.320312 3.234375h-270.777343c-10.019531 0-18.160157 8.140625-18.160157 18.179687v193.699219h153.800782c7 0 13.617187 3.179688 17.976562 8.660157l29.0625 36.460937c4.359375 5.480469 10.980469 8.660156 17.980469 8.660156h88.277344v-247.484375c0-10.039062-8.121094-18.175781-18.160157-18.175781zm0 0" fill="#fce8cb"/><g fill="#3a312a"><path d="m319.320312.234375h-114.386718c-1.660156 0-3 1.34375-3 3s1.339844 3 3 3h114.386718c8.359376 0 15.160157 6.808594 15.160157 15.179687v244.480469h-85.28125c-6.125 0-11.824219-2.746093-15.632813-7.53125l-29.058594-36.457031c-4.953124-6.222656-12.359374-9.792969-20.328124-9.792969h-150.800782v-190.699219c0-8.371093 6.800782-15.179687 15.160156-15.179687h126.292969c1.65625 0 3-1.34375 3-3s-1.34375-3-3-3h-126.289062c-11.667969 0-21.160157 9.5-21.160157 21.179687v193.699219c0 1.65625 1.339844 3 3 3h153.800782c6.125 0 11.824218 2.746094 15.632812 7.53125l29.058594 36.460938c4.953125 6.21875 12.359375 9.789062 20.328125 9.789062h88.277344c1.660156 0 3-1.34375 3-3v-247.480469c0-11.679687-9.492188-21.179687-21.160157-21.179687zm0 0"/><path d="m294.707031 57.460938h-221.902343c-1.65625 0-3 1.34375-3 3s1.34375 3 3 3h221.902343c1.660157 0 3-1.34375 3-3s-1.34375-3-3-3zm0 0"/><path d="m294.707031 100.667969h-221.902343c-1.65625 0-3 1.34375-3 3s1.34375 3 3 3h221.902343c1.660157 0 3-1.34375 3-3s-1.34375-3-3-3zm0 0"/><path d="m294.707031 143.875h-221.902343c-1.65625 0-3 1.34375-3 3s1.34375 3 3 3h221.902343c1.660157 0 3-1.34375 3-3s-1.34375-3-3-3zm0 0"/><path d="m294.707031 187.082031h-221.902343c-1.65625 0-3 1.34375-3 3s1.34375 3 3 3h221.902343c1.660157 0 3-1.34375 3-3s-1.34375-3-3-3zm0 0"/></g><path d="m425.472656 268.894531h-176.265625c-7 0-13.617187-3.1875-17.980469-8.664062l-29.0625-36.453125c-4.363281-5.476563-10.980468-8.664063-17.980468-8.664063h-158.1875c-12.699219 0-22.996094 10.292969-22.996094 22.996094v187.046875c0 12.699219 10.296875 22.996094 22.996094 22.996094h399.476562c12.699219 0 22.996094-10.296875 22.996094-22.996094v-133.269531c0-12.695313-10.296875-22.992188-22.996094-22.992188zm0 0" fill="#87796f"/><path d="m425.472656 265.894531h-176.265625c-6.117187 0-11.816406-2.746093-15.632812-7.535156l-29.0625-36.453125c-4.960938-6.222656-12.371094-9.792969-20.328125-9.792969h-158.1875c-14.335938 0-25.996094 11.664063-25.996094 25.996094v79.324219c0 1.65625 1.34375 3 3 3s3-1.34375 3-3v-79.324219c0-11.023437 8.96875-19.996094 19.996094-19.996094h158.1875c6.121094 0 11.820312 2.746094 15.632812 7.535157l29.066406 36.457031c4.960938 6.21875 12.371094 9.789062 20.324219 9.789062h176.265625c11.023438 0 19.996094 8.96875 19.996094 19.996094v133.269531c0 11.027344-8.972656 19.996094-19.996094 19.996094h-399.476562c-11.027344 0-19.996094-8.96875-19.996094-19.996094v-76.042968c0-1.65625-1.34375-3-3-3s-3 1.34375-3 3v76.042968c0 14.332032 11.660156 25.996094 25.996094 25.996094h399.476562c14.332032 0 25.996094-11.664062 25.996094-25.996094v-133.269531c0-14.335937-11.664062-25.996094-25.996094-25.996094zm0 0" fill="#3a312a"/><path d="m425.480469 271.894531h-28.679688c11.039063 0 20 8.980469 20 20v133.257813c0 11.042968-8.960937 20-20 20h28.679688c11.019531 0 19.980469-8.957032 19.980469-20v-133.257813c0-11.023437-8.960938-20-19.980469-20zm0 0" fill="#695b51"/></svg>